<?xml version="1.0" encoding="utf-8"?>
<!-- Generator: Adobe Illustrator 26.4.1, SVG Export Plug-In . SVG Version: 6.00 Build 0)  -->
<svg version="1.1" id="Layer_1" xmlns="http://www.w3.org/2000/svg" xmlns:xlink="http://www.w3.org/1999/xlink" x="0px" y="0px"
	 viewBox="0 0 448 512" style="enable-background:new 0 0 448 512;" xml:space="preserve">
<style type="text/css">
	.st0{fill:#0565AA;}
</style>
<g>
	<path class="st0" d="M209.2,270.2c-16.3,0-32.6,0.4-48.8-0.3c-4.4-0.2-10.9-2.7-12.4-6c-1.6-3.5,0.3-10.3,3.1-13.7
		c21.6-26.7,43.8-53,65.9-79.3c26.6-31.7,53.1-63.6,80.1-94.9c21.5-24.9,53.4-28.6,75.7-9.5c23.9,20.4,27.1,54.4,6.5,79.3
		c-31.6,38.2-63.4,76.2-96.1,113.3c-5.3,6.1-15.7,9.8-24.1,10.6C242.6,271.4,225.9,270.2,209.2,270.2z"/>
	<path class="st0" d="M222.2,296.8c3.7,44.5-17.3,73.7-50.9,96.1c-37.3,24.9-79.4,36.6-123,44c-9.1,1.5-18.4,2.8-27.5,2.6
		c-4.4-0.1-10.8-3.1-12.4-6.6c-1.5-3.2,0.8-10.2,3.8-13.2c39.1-39.8,78.7-79.1,118.2-118.5c1.9-1.9,4.8-4.2,7.2-4.2
		C165.7,296.7,193.6,296.8,222.2,296.8z"/>
	<path class="st0" d="M308.1,439.9c-7.4,0-14.8,0.1-22.2,0c-6.6-0.1-11.7-2.1-12.2-9.9c-0.5-8,3.9-12,11.2-12.2
		c15.9-0.4,31.8-0.3,47.7-0.1c7,0.1,11.1,4.4,11.2,11.3c0.1,7.2-4.2,10.7-11.3,10.8C324.4,439.9,316.2,439.9,308.1,439.9z"/>
	<path class="st0" d="M404.7,439.8c-7.8,0-15.8,1.1-23.2-0.5c-4.2-0.9-9.4-5.7-10.6-9.7c-1.9-6.7,3.1-11.6,9.9-11.8
		c16.6-0.5,33.3-0.8,49.9,0.4c3.6,0.3,9.3,7.1,9.3,10.9c0,3.5-5.8,9.4-9.8,10.2C422,441,413.2,439.8,404.7,439.8z"/>
	<path class="st0" d="M211.2,439.8c-7.7,0-15.5,0.1-23.2,0c-7-0.1-11.3-3.6-11.5-10.6c-0.3-7.2,4.3-11.1,10.9-11.3
		c16.2-0.4,32.4-0.4,48.6-0.1c6.8,0.1,10.9,4.2,10.9,11.4c-0.1,7.3-4.4,10.6-11.3,10.7C227.4,440,219.3,439.9,211.2,439.8
		C211.2,439.9,211.2,439.8,211.2,439.8z"/>
</g>
</svg>
