<?xml version="1.0" encoding="utf-8"?>
<!-- Generator: Adobe Illustrator 26.4.1, SVG Export Plug-In . SVG Version: 6.00 Build 0)  -->
<svg version="1.1" id="Layer_1" xmlns="http://www.w3.org/2000/svg" xmlns:xlink="http://www.w3.org/1999/xlink" x="0px" y="0px"
	 viewBox="0 0 448 512" style="enable-background:new 0 0 448 512;" xml:space="preserve">
<style type="text/css">
	.st0{fill:#0565AA;}
</style>
<path class="st0" d="M223.4,44.5c-119.6,0-216.6,97-216.6,216.6s97,216.6,216.6,216.6S440,380.7,440,261.1S343,44.5,223.4,44.5z
	 M223.4,430.3c-93.5,0-169.2-75.8-169.2-169.2S130,91.9,223.4,91.9s169.2,75.8,169.2,169.2S316.9,430.3,223.4,430.3z"/>
<path class="st0" d="M223.4,133.7C153,133.7,96,190.7,96,261.1S153,388.5,223.4,388.5s127.4-57.1,127.4-127.4
	S293.8,133.7,223.4,133.7z M223.4,360.7c-55,0-99.6-44.6-99.6-99.6s44.6-99.6,99.6-99.6s99.6,44.6,99.6,99.6
	S278.4,360.7,223.4,360.7z"/>
<circle class="st0" cx="224" cy="261.1" r="40.2"/>
</svg>
