<?xml version="1.0" encoding="utf-8"?>
<!-- Generator: Adobe Illustrator 26.4.1, SVG Export Plug-In . SVG Version: 6.00 Build 0)  -->
<svg version="1.1" id="Layer_1" xmlns="http://www.w3.org/2000/svg" xmlns:xlink="http://www.w3.org/1999/xlink" x="0px" y="0px"
	 viewBox="0 0 384 512" style="enable-background:new 0 0 384 512;" xml:space="preserve">
<style type="text/css">
	.st0{fill:#0565AA;}
</style>
<path class="st0" d="M192,0c26.5,0,48,21.5,48,48s-21.5,48-48,48s-48-21.5-48-48S165.5,0,192,0z M120,383c-13.8-3.6-24-16.1-24-31
	v-55.1l-4.6,7.6c-9.1,15.1-28.8,20-43.9,10.9s-20-28.8-10.9-43.9l58.3-97c15-24.9,40.3-41.5,68.7-45.6c4.1-0.6,8.2-1,12.5-1h1.1
	h12.5h2.3c1.4,0,2.8,0.1,4.1,0.3c35.7,2.9,65.4,29.3,72.1,65l6.1,32.5c44.3,8.6,77.7,47.5,77.7,94.3v32c0,17.7-14.3,32-32,32h-16
	h-40v96c0,17.7-14.3,32-32,32s-32-14.3-32-32v-96h-8h-8v96c0,17.7-14.3,32-32,32s-32-14.3-32-32V383z"/>
</svg>
