<?xml version="1.0" encoding="utf-8"?>
<!-- Generator: Adobe Illustrator 23.0.1, SVG Export Plug-In . SVG Version: 6.00 Build 0)  -->
<svg version="1.1" id="Layer_1" xmlns="http://www.w3.org/2000/svg" xmlns:xlink="http://www.w3.org/1999/xlink" x="0px" y="0px"
	 viewBox="0 0 841.9 595.3" style="enable-background:new 0 0 841.9 595.3;" xml:space="preserve">
<style type="text/css">
	.st0{fill:#FFFFFF;}
	.st1{fill:#0565AA;}
	.st2{fill:#EE3438;stroke:#0266AA;stroke-width:0.94;stroke-miterlimit:10;}
	.st3{fill:#EE3438;}
	.st4{fill:#EE3438;stroke:#0266AA;stroke-width:3;stroke-miterlimit:10;}
</style>
<g>
	<circle class="st0" cx="420.9" cy="297.6" r="291.1"/>
	<g>
		<path class="st1" d="M485.3,492.2c-8.6,0-38.2-1.7-56.8-23.7c-19.6-23.1-10.7-49.4-9.6-52.3l8,3c-0.9,2.4-8.4,24.4,8.1,43.8
			c18.8,22.2,50.8,20.7,52.2,20.6l0.5,8.5C487.5,492.1,486.6,492.2,485.3,492.2z"/>
		<path class="st1" d="M420.9,21.8c-152.3,0-275.8,123.5-275.8,275.8s123.5,275.8,275.8,275.8S696.8,450,696.8,297.6
			S573.3,21.8,420.9,21.8z M420.9,493.2c-108,0-195.5-87.5-195.5-195.5S313,102.1,420.9,102.1s195.5,87.5,195.5,195.5
			C616.5,405.6,528.9,493.2,420.9,493.2z"/>
		<path class="st1" d="M548.2,204c-15.3-21.5-38-28.6-44.6-30.3c-16.1-4.1-27.7-1.3-39,1.4v7.4c0.6-0.1,1.1-0.3,1.7-0.4
			c10.9-2.6,21.1-5.1,35.5-1.5c6,1.5,26.6,8,40.5,27.5c19.1,26.7,11.6,58.6,9.2,69c-7.8,33.6-30.7,53.9-44.4,66
			c-13.7,12.2-28.2,21.7-42.5,29.1v8.1c15.9-8,32-18.4,47.3-31.8c14.3-12.7,38.3-33.9,46.7-69.8C561.1,267.6,569.1,233.4,548.2,204z
			"/>
		<path class="st1" d="M293.7,204c15.3-21.5,38-28.6,44.6-30.3c16.1-4.1,27.7-1.3,39,1.4v7.4c-0.6-0.1-1.1-0.3-1.7-0.4
			c-10.9-2.6-21.1-5.1-35.5-1.5c-6,1.5-26.6,8-40.5,27.5c-19.1,26.7-11.6,58.6-9.2,69c7.8,33.6,30.7,53.9,44.4,66
			c13.7,12.2,28.2,21.7,42.5,29.1v8.1c-15.9-8-32-18.4-47.3-31.8c-14.3-12.7-38.3-33.9-46.7-69.8C280.8,267.6,272.8,233.4,293.7,204
			z"/>
		<path class="st2" d="M428.2,427.2c-0.3-8.8-0.6-17.6-0.9-26.3c-0.5-0.9-0.5-2,0.1-2.7c0.5-0.6,1.2-0.8,1.4-0.8
			c5-1.8,9.1-3.2,11.9-4.1c12.2-4.1,17.2-5.5,24.7-9.1c2.7-1.3,4.9-2.5,6.3-3.3c-0.1-1.5-0.6-4.4-2.5-7.5c-1.9-3.1-4.4-4.9-5.7-5.7
			c-7.9,3.8-14.4,6.4-19,8c-1.4,0.5-6.7,2.4-17.4,6.1c-0.3,0.1-3.9,1.3-8.3,1.6c0,0-4,0.2-6.2-0.6c-0.1,0-0.7-0.3-1.6-0.6
			c-1-0.3-1.6-0.3-5.1-1.5c-4.5-1.5-27.5-12.3-28.6-12.8c-1.3,1.1-3.6,3.3-5.2,6.8c-1.5,3.4-1.7,6.4-1.7,8c4.4,1.8,7.9,3.3,10.3,4.4
			c6.8,3,9.2,4.2,14.9,6.4c5.3,2.1,8,3.2,9.1,3.2c2,0.1,3,0.5,5.1,1.4c0.3,0.1,1,0.4,1.4,1.1c0.6,0.9,0.5,1.8,0.5,2.1
			c0.1,8.5,0.2,17,0.3,25.5c1.5,0.6,3.1,1.3,4.6,2c1.7,0.1,3.9,0.1,6.3-0.3C425,428.2,426.7,427.7,428.2,427.2z"/>
		<circle class="st3" cx="384.3" cy="179.2" r="12.7"/>
		<circle class="st3" cx="464.5" cy="179.9" r="12.7"/>
		<path class="st4" d="M472.6,341.8c10.2-4.2,18.2-8.9,24-12.8c6.1-4,13.7-9.2,21.6-18c4.8-5.3,8-10.2,10.4-14.4
			c4.3-7.6,5.6-13,6.2-16.1c0-0.2,0.1-0.4,0.1-0.7c0.3-1.4,1.2-6.9,1.6-14.3c0.4-8.6,0.7-13-1.1-14.2c-4.2-3-11.2,6.2-24.9,7
			c-13.1,0.7-19-7-25.5-4c-6.7,3.2-6.5,15.2-6.6,22.8C478.2,292.5,477,314.1,472.6,341.8z"/>
		<path class="st4" d="M509.8,247.5c0.5,0,1.7-0.1,2.8-0.2c6.7-1.1,12.5-6.9,13.6-13.5c1.1-6.9-2.1-13.6-8.2-17
			c-6.4-3.5-12.9-3.3-19,0.9c-4.2,2.8-6.7,7-7,12.5C491.7,239.9,499.2,247.5,509.8,247.5z"/>
		<path class="st4" d="M367.2,277.1c-0.1-7.6,0.2-19.7-6.6-22.8c-6.5-3.1-12.4,4.7-25.5,4c-13.7-0.8-20.7-10-24.9-7
			c-1.8,1.2-1.5,5.6-1.1,14.2c0.4,7.5,1.3,12.9,1.6,14.3c0,0.3,0.1,0.5,0.1,0.7c0.6,3.1,1.9,8.5,6.2,16.1c2.4,4.2,5.7,9.1,10.4,14.4
			c7.9,8.8,15.5,14,21.6,18c5.8,3.9,13.9,8.6,24,12.8C368.6,314.1,367.4,292.5,367.2,277.1z"/>
		<path class="st4" d="M353.5,230.1c-0.2-5.5-2.8-9.7-7-12.5c-6.1-4.2-12.6-4.4-19-0.9c-6.2,3.4-9.3,10.1-8.2,17
			c1.1,6.7,6.9,12.5,13.6,13.5c1.1,0.2,2.3,0.2,2.8,0.2C346.4,247.5,353.9,239.9,353.5,230.1z"/>
		<path class="st1" d="M422.3,258.1c-18.5,0.7-32.4-5.6-38.4-8.8c0.8,16.9,1.8,34.3,3.2,52.1c1.2,15.3,2.5,30.2,4,44.9
			c1.8,2.1,12.8,14.5,31.2,15.2c20.3,0.8,32.9-13.4,34.4-15.2c2.3-16.6,4-34.8,4.8-54.5c0.7-16.5,0.6-32,0-46.5
			C455.9,249.1,442,257.3,422.3,258.1z"/>
		<circle class="st1" cx="423" cy="223.7" r="23.9"/>
		<circle class="st0" cx="655.4" cy="279.1" r="14.3"/>
		<circle class="st0" cx="185.8" cy="279.1" r="14.3"/>
		<g>
			<path class="st0" d="M178.6,346l37.4-9l1,4l-20.9,14.9l23.1-5.6l1.3,5.3l-37.4,9l-0.9-3.8l22.6-15.5l-24.9,6L178.6,346z"/>
			<path class="st0" d="M192.3,385c-2-0.6-3.6-2.3-4.5-5.1c-1-2.8-0.9-5.1,0.3-6.8c1.2-1.8,3.3-3.2,6.4-4.3l7.8-2.7
				c3.1-1.1,5.6-1.3,7.6-0.7c2,0.6,3.6,2.3,4.5,5.1c1,2.8,0.9,5.1-0.3,6.8c-1.2,1.8-3.3,3.2-6.4,4.3l-7.8,2.7
				C196.8,385.4,194.3,385.6,192.3,385z M191.8,377.3c0,0.3,0,0.7,0.2,1c0.1,0.4,0.3,0.7,0.5,0.9c0.2,0.2,0.4,0.4,0.6,0.5
				c0.2,0.1,0.5,0.2,0.8,0.2c0.3,0,0.6,0,0.9,0c0.3,0,0.6-0.1,1-0.2s0.8-0.2,1-0.3c0.3-0.1,0.6-0.2,1.1-0.4l7.8-2.7
				c0.5-0.2,0.9-0.3,1.1-0.4c0.3-0.1,0.6-0.2,1-0.4c0.4-0.2,0.7-0.3,0.9-0.5c0.2-0.1,0.4-0.3,0.7-0.6c0.3-0.2,0.4-0.5,0.5-0.7
				c0.1-0.2,0.1-0.5,0.1-0.8c0-0.3,0-0.7-0.2-1c-0.1-0.4-0.3-0.7-0.5-0.9c-0.2-0.2-0.4-0.4-0.6-0.5c-0.2-0.1-0.5-0.2-0.9-0.2
				c-0.3,0-0.6,0-0.9,0c-0.3,0-0.6,0.1-1,0.2c-0.4,0.1-0.8,0.2-1,0.3s-0.6,0.2-1.1,0.4l-7.8,2.7c-0.5,0.2-0.9,0.3-1.1,0.4
				c-0.2,0.1-0.6,0.2-1,0.4c-0.4,0.2-0.7,0.3-0.9,0.5c-0.2,0.1-0.4,0.3-0.7,0.6c-0.3,0.2-0.4,0.5-0.5,0.7
				C191.9,376.8,191.8,377,191.8,377.3z"/>
			<path class="st0" d="M196.2,400.7c-0.9-2-1-3.6-0.4-5c0.6-1.3,1.9-2.5,3.9-3.4l15.6-7l-1.1-2.5l3.8-1.7l1.1,2.5l8.8-3.9l2.2,5
				l-8.8,3.9l1.7,3.8l-3.8,1.7l-1.7-3.8l-14.6,6.5c-1,0.5-1.7,0.9-2,1.4c-0.4,0.5-0.3,1.1,0,2c0.2,0.4,0.5,0.9,1,1.6l-4.1,1.8
				C197.1,402.5,196.5,401.5,196.2,400.7z"/>
			<path class="st0" d="M210.5,427.6c-0.6-1-0.9-1.9-0.9-2.9c0-1,0.2-2.1,0.5-3.2l-2.1,1.3l-2.8-4.7l32.9-19.9l2.8,4.7l-11.7,7.1
				c0.7,0.2,1.3,0.3,1.6,0.4c0.3,0.1,0.8,0.3,1.4,0.5c0.6,0.2,1.1,0.5,1.5,0.9c0.4,0.4,0.8,0.8,1.1,1.4c0.5,0.8,0.8,1.6,0.9,2.4
				c0.1,0.8,0,1.5-0.1,2.2c-0.2,0.6-0.5,1.3-1.1,2.1c-0.6,0.7-1.1,1.4-1.7,1.9c-0.5,0.5-1.3,1.1-2.3,1.8c-1,0.7-1.8,1.3-2.4,1.7
				c-0.6,0.4-1.5,0.9-2.6,1.6l-0.3,0.2c-1,0.6-2.1,1.2-3.1,1.6c-1,0.5-2.1,0.9-3.3,1.2c-1.2,0.3-2.2,0.5-3.2,0.5
				c-1,0-1.9-0.2-2.8-0.6C211.8,429.1,211.1,428.5,210.5,427.6z M213.7,424.1c0.3,0.5,0.7,0.8,1.3,0.9c0.6,0.1,1.2,0,2-0.2
				s1.5-0.6,2.2-0.9c0.7-0.4,1.5-0.8,2.4-1.3c0.7-0.4,1.5-0.9,2.6-1.6c1.1-0.7,1.9-1.2,2.5-1.5c0.5-0.3,1-0.6,1.4-0.9
				c0.4-0.3,0.8-0.6,1.2-1c0.4-0.4,0.7-0.7,0.9-1.1s0.3-0.7,0.3-1.1s-0.1-0.8-0.4-1.2c-0.8-1.3-1.8-2.3-3.1-3l-14.8,8.9
				C212.5,421.6,213,422.9,213.7,424.1z"/>
			<path class="st0" d="M211.9,441.7l3.3-2.4c0.6,0.9,1.2,1.5,1.7,2c0.5,0.4,1,0.7,1.5,0.7c0.5,0,0.9,0,1.3-0.2s0.9-0.5,1.6-1
				l17.5-20.5l3.2,4.4c-8.2,8.7-12.7,13.4-13.5,14.2c1.7-0.9,3.6-1.8,5.5-2.8s4.1-2,6.5-3.2c2.4-1.1,4.2-2,5.5-2.7l3.2,4.4
				L222,446.2c-1.9,0.8-3.6,0.9-5.1,0.2c-1.6-0.7-3.1-2.1-4.7-4.2L211.9,441.7z"/>
			<path class="st0" d="M237.4,463.3l19.4-19.5l3.9,3.9l-2.2,2.2c3-0.3,5.5,0.5,7.3,2.3c0.9,0.9,1.4,1.8,1.4,2.7
				c0,0.8-0.3,1.8-1.1,2.8c1.5-0.2,2.8-0.2,4,0.1c1.2,0.3,2.3,1,3.5,2.1c0.3,0.3,0.6,0.6,0.8,1c0.2,0.3,0.3,0.6,0.4,0.9
				c0.1,0.3,0.1,0.6,0.1,0.9c0,0.3-0.1,0.6-0.1,0.9c-0.1,0.3-0.2,0.6-0.4,0.9c-0.2,0.4-0.4,0.6-0.6,0.9c-0.2,0.2-0.4,0.5-0.8,0.9
				c-0.4,0.4-0.6,0.7-0.8,0.9s-0.5,0.5-1,1c-0.1,0.1-0.2,0.2-0.2,0.2l-14.1,14.2l-3.9-3.9l14.1-14.2c0,0,0.1-0.1,0.2-0.2
				c0.3-0.3,0.6-0.6,0.8-0.8s0.3-0.4,0.5-0.7c0.2-0.3,0.3-0.6,0.2-0.8s-0.2-0.5-0.4-0.7c-0.4-0.4-0.9-0.7-1.4-0.9
				c-0.5-0.2-1-0.4-1.4-0.5c-0.4-0.1-0.8-0.1-1.4-0.2L249,474.9l-3.9-3.9l14-14.2c0.1-0.1,0.1-0.1,0.3-0.3c0.3-0.3,0.5-0.5,0.6-0.6
				c0.1-0.1,0.3-0.3,0.5-0.6c0.2-0.3,0.3-0.5,0.4-0.7c0-0.2,0-0.4,0-0.6c0-0.2-0.2-0.4-0.4-0.6c-1-1-2.3-1.5-4.2-1.7l-15.2,15.3
				L237.4,463.3z"/>
			<path class="st0" d="M258.4,492.7l2.5-3.2c0.9,0.7,1.6,1.1,2.2,1.4s1.1,0.4,1.6,0.3c0.5-0.1,0.9-0.3,1.2-0.6
				c0.3-0.3,0.8-0.7,1.2-1.3l11.3-24.5l4.3,3.4c-5.6,10.6-8.6,16.3-9.1,17.3c1.4-1.3,3-2.7,4.6-4.2c1.6-1.5,3.4-3,5.4-4.8
				c2-1.7,3.5-3.1,4.6-4.1l4.3,3.4l-23.2,18.5c-1.6,1.3-3.2,1.8-4.9,1.6c-1.7-0.3-3.6-1.2-5.6-2.8L258.4,492.7z"/>
			<path class="st0" d="M288.7,506.6l13.4-24l4.8,2.7l-1.5,2.7c2.8-1.1,5.4-1,7.7,0.3c1.1,0.6,1.9,1.4,2.1,2.2
				c0.3,0.8,0.2,1.8-0.3,3c1.4-0.6,2.6-0.9,3.9-0.9c1.2,0,2.5,0.3,3.9,1.1c0.4,0.2,0.7,0.5,1,0.7c0.3,0.3,0.5,0.5,0.7,0.8
				c0.2,0.2,0.3,0.5,0.3,0.9c0,0.3,0.1,0.6,0.1,0.9c0,0.3,0,0.6-0.2,1c-0.1,0.4-0.2,0.7-0.3,1c-0.1,0.3-0.3,0.6-0.5,1.1
				c-0.2,0.5-0.4,0.8-0.6,1.1c-0.1,0.3-0.4,0.7-0.7,1.2c-0.1,0.1-0.1,0.2-0.1,0.3l-9.7,17.5l-4.8-2.7l9.8-17.5
				c0-0.1,0.1-0.2,0.2-0.3c0.2-0.4,0.4-0.7,0.5-1c0.1-0.2,0.2-0.5,0.3-0.8c0.1-0.3,0.1-0.6,0-0.9c-0.1-0.2-0.3-0.4-0.6-0.6
				c-0.5-0.3-1-0.5-1.6-0.5c-0.6-0.1-1.1-0.1-1.5-0.1c-0.4,0-0.8,0.1-1.4,0.2l-10.5,18.8l-4.8-2.7l9.7-17.4c0-0.1,0.1-0.2,0.2-0.3
				c0.2-0.4,0.3-0.6,0.4-0.8c0.1-0.2,0.2-0.4,0.3-0.7c0.1-0.3,0.2-0.5,0.2-0.7s0-0.4-0.1-0.6c-0.1-0.2-0.3-0.4-0.5-0.5
				c-1.2-0.7-2.7-0.8-4.4-0.5l-10.5,18.9L288.7,506.6z"/>
			<path class="st0" d="M319.9,522.9l11-25.2l5,2.2l-11,25.2L319.9,522.9z M332.5,493.9l2.2-5l5,2.2l-2.2,5L332.5,493.9z"/>
			<path class="st0" d="M336.9,538.5c-0.6-0.2-1.2-0.4-1.6-0.6c-0.4-0.1-1-0.4-1.6-0.6c-0.7-0.3-1.3-0.5-1.7-0.8
				c-0.5-0.2-1-0.5-1.5-0.9c-0.6-0.3-1-0.7-1.3-1c-0.3-0.3-0.6-0.7-0.9-1.1c-0.3-0.4-0.4-0.8-0.5-1.2c0-0.4,0-0.9,0.2-1.3
				c0.5-1.4,1.2-2.4,2.3-3.1c1.1-0.7,2.3-1.1,3.6-1.3c-0.6-0.4-1.1-0.9-1.5-1.5c-0.4-0.6-0.5-1.1-0.3-1.7c0.1-0.2,0.2-0.5,0.3-0.7
				c0.1-0.2,0.3-0.5,0.4-0.6c0.1-0.2,0.3-0.4,0.6-0.6c0.2-0.2,0.4-0.4,0.6-0.5c0.1-0.1,0.4-0.3,0.7-0.5c0.3-0.2,0.5-0.3,0.6-0.4
				c0.1-0.1,0.3-0.2,0.6-0.4c0.3-0.2,0.5-0.3,0.5-0.3c-1-2.7-0.9-5.6,0.2-8.7c0.6-1.8,1.5-3.3,2.6-4.5c1.1-1.2,2.3-2,3.8-2.4
				c1.5-0.4,3.1-0.3,4.7,0.3c1,0.3,1.7,0.8,2.4,1.3c0.6,0.5,1.1,1.1,1.4,1.6c0.3,0.6,0.5,1.3,0.7,2.1c1.7-1.5,3.5-2,5.4-1.5
				c0,0,0.1,0,0.1,0c0,0,0.1,0,0.1,0c0.1,0,0.1,0,0.1,0l-1.5,4.2c-0.1,0-0.2-0.1-0.3-0.1c-0.6-0.2-1-0.4-1.3-0.5
				c-0.3-0.1-0.6-0.1-1.1-0.2c-0.4,0-0.7,0-1,0.2c0.1,0.6,0,1.4-0.1,2.3c-0.1,0.9-0.3,1.8-0.6,2.5c-0.6,1.8-1.5,3.3-2.5,4.5
				c-1,1.2-2.3,2-3.8,2.4c-1.5,0.4-3.1,0.3-4.8-0.3l-2.5-1.2c0,0.1-0.2,0.1-0.3,0.3s-0.3,0.2-0.4,0.3c-0.1,0.1-0.2,0.2-0.3,0.4
				c-0.1,0.1-0.2,0.3-0.3,0.5c-0.1,0.4-0.1,0.7,0.2,1.1c0.3,0.4,0.7,0.7,1.2,1c0.5,0.3,1.1,0.6,1.6,0.9c0.5,0.2,1.1,0.5,1.8,0.8
				c0.7,0.3,1.1,0.5,1.4,0.6c0.7,0.4,1.4,0.7,1.9,1.1s1.1,0.8,1.6,1.3c0.5,0.5,0.9,1,1.2,1.5c0.3,0.5,0.4,1.1,0.5,1.8
				c0,0.7-0.1,1.4-0.3,2.2c-0.3,0.9-0.8,1.7-1.4,2.4c-0.6,0.6-1.3,1.1-2,1.4c-0.7,0.3-1.5,0.5-2.4,0.5c-0.9,0-1.8,0-2.7-0.2
				C338.8,539.1,337.8,538.8,336.9,538.5z M338.2,534.7c0.4,0.1,0.7,0.2,1,0.3c0.3,0.1,0.6,0.2,1,0.3c0.4,0.1,0.7,0.1,1.1,0.2
				c0.3,0,0.6,0,0.9,0c0.3,0,0.5-0.2,0.8-0.3c0.2-0.2,0.4-0.4,0.5-0.7c0.5-1.4-0.6-2.8-3.2-4.1l-4.1-2c-0.7,0.2-1.3,0.6-1.9,1.2
				c-0.6,0.6-1.1,1.3-1.4,2.1c-0.1,0.2-0.1,0.4,0,0.6c0.1,0.2,0.3,0.4,0.5,0.6c0.3,0.2,0.5,0.4,0.8,0.5c0.3,0.2,0.6,0.3,1.1,0.5
				c0.4,0.2,0.8,0.3,1.1,0.4c0.3,0.1,0.6,0.2,1.1,0.4C337.8,534.5,338.1,534.6,338.2,534.7z M342.3,518.9c2.2,0.8,3.9-0.7,5.2-4.4
				c0.3-0.7,0.5-1.4,0.6-2.1c0.1-0.7,0.2-1.3,0.2-2s-0.2-1.3-0.5-1.8c-0.3-0.5-0.8-0.9-1.4-1.1c-0.6-0.2-1.2-0.2-1.8-0.1
				c-0.6,0.2-1.1,0.5-1.5,1.1s-0.8,1.1-1.1,1.7c-0.3,0.6-0.6,1.3-0.9,2C339.7,516,340.2,518.2,342.3,518.9z"/>
			<path class="st0" d="M352.6,535l9.4-37.3l5.3,1.3l-3.4,13.5c1-0.5,1.8-0.9,2.4-1.2c0.6-0.3,1.4-0.4,2.3-0.6c1-0.1,2,0,3,0.2
				c1.1,0.3,2,0.9,2.5,2s0.6,2.1,0.3,3.3l-5.7,22.7l-5.3-1.3l5-20c0.2-0.9,0.3-1.6,0.2-2.1c-0.1-0.5-0.6-0.8-1.3-1
				c-1.1-0.3-2.4,0-3.9,0.7l-5.3,21.1L352.6,535z"/>
			<path class="st0" d="M382.9,542c-2.1-0.4-3.6-1.2-4.4-2.4c-0.8-1.2-1-3-0.7-5.2l2.8-16.9l-2.7-0.5l0.7-4.1l2.7,0.5l1.6-9.5
				l5.4,0.9l-1.6,9.5l4.1,0.7l-0.7,4.1l-4.1-0.7l-2.6,15.8c-0.2,1.1-0.2,1.9,0,2.5c0.2,0.6,0.8,0.9,1.7,1.1c0.4,0.1,1,0.1,1.9,0.1
				l-0.7,4.4C384.9,542.2,383.8,542.1,382.9,542z"/>
			<path class="st0" d="M413.3,544.8c-1.1,0-2.1-0.4-2.9-0.9s-1.6-1.3-2.4-2.2l-0.1,2.5l-5.5-0.2l1.6-38.4l5.5,0.2l-0.6,13.7
				c0.5-0.5,0.9-0.9,1.2-1.1c0.3-0.2,0.7-0.5,1.2-0.9c0.5-0.4,1-0.6,1.6-0.7c0.5-0.1,1.1-0.2,1.8-0.1c0.9,0,1.7,0.2,2.5,0.6
				s1.3,0.8,1.7,1.3c0.5,0.5,0.8,1.2,1.1,2.1s0.5,1.7,0.6,2.4c0.1,0.7,0.2,1.7,0.3,2.9s0,2.2,0,3c0,0.7,0,1.8-0.1,3.1l0,0.4
				c0,1.2-0.2,2.4-0.3,3.5c-0.2,1.1-0.4,2.2-0.8,3.4c-0.4,1.1-0.8,2.1-1.3,3c-0.5,0.8-1.2,1.5-2.1,2
				C415.3,544.7,414.3,544.9,413.3,544.8z M412.1,540.3c0.6,0,1.1-0.2,1.5-0.6c0.4-0.4,0.7-1,0.9-1.8s0.4-1.6,0.5-2.4
				c0.1-0.8,0.2-1.7,0.2-2.7c0-0.8,0.1-1.8,0.1-3.1c0-1.3,0.1-2.2,0.1-2.9c0-0.6,0-1.2,0-1.7c0-0.5-0.1-1-0.1-1.5
				c-0.1-0.5-0.2-1-0.4-1.3c-0.2-0.4-0.4-0.6-0.8-0.9c-0.3-0.2-0.7-0.4-1.2-0.4c-1.5-0.1-2.9,0.2-4.2,0.9l-0.7,17.3
				C409.4,539.9,410.8,540.2,412.1,540.3z"/>
			<path class="st0" d="M431.3,544.8c-1.2,0.1-2.2-0.3-3-1.1c-0.8-0.8-1.2-1.8-1.3-3.1l-1.4-23.4l5.5-0.3l1.3,21.7
				c0,0.6,0.2,1,0.6,1.4c0.4,0.3,0.8,0.5,1.4,0.5c0.3,0,0.6-0.1,0.9-0.2c0.3-0.1,0.6-0.2,0.8-0.4s0.5-0.4,0.6-0.5
				c0.1-0.1,0.4-0.3,0.6-0.6c0.3-0.3,0.5-0.4,0.5-0.5l-1.3-21.7l5.5-0.3l1.6,27.4l-5.5,0.3l-0.2-3c-0.5,0.5-0.9,0.9-1.1,1.1
				c-0.2,0.2-0.6,0.5-1.1,0.9c-0.5,0.4-0.9,0.7-1.3,0.9c-0.4,0.2-0.9,0.4-1.4,0.5C432.5,544.6,431.9,544.7,431.3,544.8z"/>
			<path class="st0" d="M458.3,542.1c-2.1,0.3-3.8,0-4.9-1c-1.1-1-1.9-2.5-2.2-4.7l-2.4-16.9l-2.7,0.4l-0.6-4.1l2.7-0.4l-1.4-9.5
				l5.4-0.8l1.4,9.5l4.1-0.6l0.6,4.1l-4.1,0.6l2.2,15.9c0.2,1.1,0.4,1.9,0.8,2.3c0.4,0.5,1,0.6,1.9,0.5c0.4,0,1-0.2,1.8-0.5l0.6,4.4
				C460.3,541.8,459.2,542,458.3,542.1z"/>
			<path class="st0" d="M488.1,535.7c-1.1,0.3-2.1,0.3-3.1,0c-1-0.3-2-0.7-3-1.3l0.7,2.4l-5.3,1.5l-10.1-37.1l5.3-1.5l3.6,13.2
				c0.4-0.7,0.6-1.1,0.8-1.4c0.2-0.3,0.5-0.7,0.8-1.2c0.4-0.5,0.8-0.9,1.3-1.2c0.5-0.3,1-0.5,1.6-0.7c0.9-0.2,1.7-0.3,2.5-0.2
				s1.5,0.4,2.1,0.7c0.6,0.3,1.1,0.9,1.7,1.6s1,1.5,1.3,2.1s0.7,1.6,1.1,2.7c0.4,1.1,0.7,2.1,0.9,2.8s0.5,1.7,0.8,3l0.1,0.4
				c0.3,1.2,0.6,2.3,0.7,3.4c0.2,1.1,0.3,2.3,0.3,3.5c0,1.2-0.1,2.3-0.4,3.2c-0.3,0.9-0.7,1.8-1.4,2.5
				C490,534.9,489.1,535.4,488.1,535.7z M485.6,531.7c0.6-0.2,1-0.5,1.2-1c0.3-0.5,0.4-1.2,0.3-2c0-0.8-0.1-1.6-0.3-2.4
				c-0.1-0.8-0.4-1.7-0.6-2.7c-0.2-0.7-0.5-1.7-0.8-3s-0.6-2.1-0.8-2.8c-0.2-0.6-0.3-1.2-0.5-1.6c-0.2-0.5-0.4-0.9-0.6-1.4
				c-0.3-0.5-0.5-0.9-0.8-1.1c-0.3-0.3-0.6-0.5-1-0.6c-0.4-0.1-0.8-0.1-1.3,0c-1.5,0.4-2.7,1.1-3.7,2.1l4.6,16.7
				C482.9,532.1,484.3,532,485.6,531.7z"/>
			<path class="st0" d="M502.1,538.2l-1.4-3.9c1-0.4,1.8-0.7,2.4-1.1c0.6-0.4,0.9-0.8,1.1-1.2c0.2-0.5,0.2-0.9,0.2-1.3
				c-0.1-0.4-0.2-1-0.5-1.7l-15-22.4l5.2-1.9c6.1,10.3,9.4,15.9,9.9,16.8c-0.4-1.9-0.8-3.9-1.2-6.1c-0.4-2.1-0.8-4.5-1.3-7.1
				c-0.4-2.6-0.8-4.6-1.1-6l5.2-1.9l3.6,29.4c0.3,2-0.1,3.7-1.2,5c-1.1,1.3-2.9,2.4-5.3,3.3L502.1,538.2z"/>
			<path class="st0" d="M538.2,515.3c-1.6,0.8-3,1.3-4.4,1.5c-1.4,0.2-2.6,0-3.7-0.3s-2.2-1.1-3.3-2c-1.1-1-2-2-2.9-3.2
				c-0.9-1.2-1.7-2.7-2.6-4.4l-4.5-8.6c-4.4-8.3-3.3-14.2,3.3-17.7c1.6-0.8,3.1-1.3,4.5-1.5c1.4-0.1,2.7,0.1,3.9,0.6
				c1.2,0.5,2.3,1.3,3.3,2.3c1,1,2,2.3,2.9,3.9c0.1,0.2,0.3,0.6,0.6,1l-4.9,2.6l-0.5-1c-0.4-0.8-0.8-1.5-1.2-2s-0.8-1-1.3-1.5
				s-1-0.8-1.5-1c-0.5-0.2-1.1-0.2-1.7-0.2c-0.6,0.1-1.3,0.3-2,0.7c-1,0.5-1.7,1.1-2.2,1.9c-0.5,0.7-0.7,1.5-0.7,2.4
				c0,0.9,0.1,1.8,0.4,2.7c0.3,0.9,0.7,1.9,1.3,3l5.8,10.9c0.4,0.8,0.8,1.5,1.2,2.1c0.4,0.6,0.8,1.2,1.3,1.9c0.5,0.6,1,1.1,1.5,1.5
				c0.5,0.4,1,0.7,1.6,0.9c0.5,0.2,1.2,0.3,1.8,0.2c0.6-0.1,1.3-0.3,2-0.6c0.8-0.4,1.4-1,1.9-1.6c0.4-0.6,0.7-1.3,0.8-2
				c0.1-0.7,0-1.5-0.2-2.3c-0.2-0.9-0.5-1.7-0.8-2.5c-0.3-0.8-0.8-1.7-1.3-2.7l-0.6-1.2l-4.9,2.6l-1.9-3.6l9.7-5.1l8.9,17l-3.7,1.9
				l-3.1-3C541.4,511.9,540.5,514.1,538.2,515.3z"/>
			<path class="st0" d="M564.6,495.9c-0.1,2.1-1.3,4-3.8,5.7c-2.4,1.7-4.7,2.1-6.7,1.5c-2-0.7-3.9-2.4-5.8-5l-4.7-6.8
				c-1.8-2.7-2.7-5.1-2.6-7.2c0.1-2.1,1.3-4,3.8-5.7c2.4-1.7,4.7-2.1,6.7-1.5c2,0.7,3.9,2.4,5.8,5l4.7,6.8
				C563.8,491.3,564.6,493.7,564.6,495.9z M557.3,498.3c0.3-0.1,0.6-0.2,0.9-0.4c0.3-0.2,0.6-0.5,0.7-0.7c0.2-0.3,0.3-0.5,0.4-0.8
				c0.1-0.2,0.1-0.5,0-0.9c-0.1-0.3-0.1-0.6-0.2-0.9c-0.1-0.2-0.2-0.6-0.5-1c-0.2-0.4-0.4-0.7-0.6-0.9c-0.1-0.2-0.4-0.5-0.7-1
				l-4.7-6.8c-0.3-0.4-0.5-0.8-0.7-1c-0.2-0.2-0.4-0.5-0.7-0.9c-0.3-0.4-0.5-0.6-0.7-0.8c-0.2-0.2-0.4-0.3-0.7-0.5
				c-0.3-0.2-0.6-0.3-0.8-0.3c-0.3,0-0.5,0-0.8,0.1c-0.3,0.1-0.6,0.2-0.9,0.4c-0.3,0.2-0.6,0.5-0.7,0.7s-0.3,0.5-0.4,0.8
				s-0.1,0.5,0,0.9c0.1,0.3,0.1,0.6,0.2,0.9c0.1,0.2,0.2,0.6,0.5,1c0.2,0.4,0.4,0.7,0.6,0.9c0.1,0.2,0.4,0.5,0.7,1l4.7,6.8
				c0.3,0.4,0.5,0.8,0.7,1c0.2,0.2,0.4,0.5,0.7,0.9c0.3,0.4,0.5,0.6,0.7,0.8c0.2,0.2,0.4,0.3,0.7,0.5c0.3,0.2,0.6,0.3,0.8,0.3
				C556.7,498.4,557,498.4,557.3,498.3z"/>
			<path class="st0" d="M578.3,488.5c-0.9,0.8-2,1.2-3.1,1.3c-1.1,0.1-2.3-0.2-3.4-0.8c-1.1-0.6-2.2-1.3-3.2-2.1c-1-0.8-2-1.8-3-2.8
				c-0.5-0.5-1.5-1.8-3.2-3.8c-0.6-0.7-1.1-1.4-1.6-2.1c-0.5-0.6-0.9-1.3-1.3-2c-0.4-0.7-0.8-1.4-1-2c-0.3-0.6-0.4-1.3-0.5-1.9
				c-0.1-0.7-0.1-1.3,0-1.9c0.1-0.6,0.3-1.2,0.7-1.8c0.3-0.6,0.8-1.1,1.4-1.6c0.5-0.4,1-0.7,1.5-0.9c0.5-0.2,1.1-0.4,1.7-0.4
				c0.6,0,1.1,0,1.5,0c0.4,0,0.9,0.1,1.6,0.1l-8.8-10.5l4.2-3.5l24.7,29.5l-4.2,3.5l-1.6-1.9c-0.1,1.2-0.3,2.3-0.6,3.2
				C579.7,486.9,579.1,487.8,578.3,488.5z M576.4,484.1c1-0.9,1.9-2,2.6-3.3l-11.1-13.2c-1.4,0.2-2.7,0.8-3.9,1.8
				c-0.4,0.4-0.7,0.7-0.8,1.2c-0.1,0.4-0.1,0.9,0.1,1.4c0.2,0.5,0.4,1,0.7,1.5c0.3,0.5,0.6,1,1.1,1.6c2,2.5,3.7,4.4,4.9,5.8
				c0.6,0.7,1.2,1.3,1.7,1.8c0.5,0.5,1.1,0.9,1.6,1.3s1.1,0.6,1.6,0.6C575.5,484.6,576,484.5,576.4,484.1z"/>
			<path class="st0" d="M573.5,455.4l-2.9-1c0.7-0.7,1.1-1.3,1.1-1.9c0-0.6-0.3-1.2-1-1.9l-2,1.9l-3.8-3.9l3.9-3.8
				c1.4,1.5,2.6,2.7,3.6,3.8c0.5,0.6,0.9,1.1,1.3,1.5c0.3,0.4,0.6,0.9,0.9,1.4c0.2,0.5,0.4,1,0.4,1.4c0,0.4-0.1,0.9-0.3,1.3
				C574.4,454.4,574,454.9,573.5,455.4z"/>
			<path class="st0" d="M605.7,462.1c-1.5,1.7-3.2,2.6-5.1,2.7c-1.9,0.1-3.8-0.3-5.8-1.4l1.7-4c2.7,1.1,4.7,1,5.8-0.3
				c0.6-0.7,0.9-1.3,0.8-2c0-0.7-0.4-1.3-1-1.9c-1-0.8-2-1.2-3.3-1.1l-6.7,1.4c-0.7,0.2-1.4,0.3-1.9,0.4c-0.5,0.1-1.2,0.1-1.8,0
				c-0.7,0-1.3-0.2-2-0.5c-0.6-0.3-1.2-0.7-1.8-1.2c-1.7-1.6-2.6-3.3-2.5-5.3c0.1-1.9,0.9-3.8,2.6-5.7c0.8-0.9,1.6-1.6,2.6-2
				c0.9-0.5,1.9-0.7,2.8-0.7s1.9,0.1,2.8,0.3s1.8,0.6,2.7,1.1l-1.7,4c-0.5-0.2-1-0.4-1.5-0.5s-0.9-0.2-1.5-0.2s-1.1,0-1.6,0.2
				c-0.5,0.2-0.9,0.5-1.3,0.9c-0.6,0.6-0.9,1.3-0.8,2c0,0.7,0.4,1.3,1,1.9c0.6,0.6,1.5,0.7,2.6,0.5l6.7-1.4c0.8-0.1,1.5-0.2,2.1-0.2
				s1.3,0,2,0.1c0.7,0.1,1.4,0.3,2.1,0.6s1.3,0.8,2,1.3c1.7,1.6,2.6,3.3,2.5,5.3C608.2,458.3,607.4,460.2,605.7,462.1z"/>
			<path class="st0" d="M626.9,434.5c-1,1.5-2,2.6-3.2,3.4c-1.1,0.8-2.3,1.3-3.5,1.5c-1.2,0.2-2.4,0.1-3.8-0.2
				c-1.4-0.3-2.7-0.8-4.1-1.5c-1.3-0.7-2.8-1.5-4.4-2.6l-8.1-5.4c-7.8-5.2-9.7-10.9-5.6-17.1c1-1.5,2.1-2.6,3.2-3.4s2.4-1.3,3.7-1.4
				c1.3-0.1,2.6,0,4,0.5c1.4,0.4,2.8,1.1,4.4,2.1c0.2,0.1,0.5,0.3,1,0.6l-3,4.6l-1-0.6c-0.8-0.5-1.4-0.9-2-1.2
				c-0.6-0.3-1.2-0.5-1.8-0.7c-0.6-0.2-1.2-0.2-1.7-0.1s-1.1,0.3-1.6,0.7c-0.5,0.4-1,0.9-1.5,1.6c-0.6,0.9-1,1.8-1.1,2.7
				c-0.1,0.9,0.1,1.7,0.5,2.5s1,1.5,1.7,2.1s1.6,1.3,2.6,2l10.3,6.8c0.8,0.5,1.5,0.9,2.1,1.3c0.6,0.4,1.3,0.7,2,1
				c0.7,0.3,1.4,0.5,2,0.6c0.6,0.1,1.2,0.1,1.8,0c0.6-0.1,1.1-0.3,1.7-0.7c0.5-0.4,1-0.9,1.4-1.5c0.5-0.8,0.8-1.5,0.9-2.3
				c0.1-0.8,0-1.5-0.3-2.1c-0.3-0.6-0.7-1.3-1.3-2c-0.6-0.7-1.2-1.3-1.9-1.8c-0.7-0.5-1.5-1.1-2.4-1.7l-1.1-0.8l-3,4.6l-3.4-2.3
				l6.1-9.2l16,10.6l-2.3,3.4l-4.2-1.1C628.1,430,628.3,432.4,626.9,434.5z"/>
			<path class="st0" d="M635.9,419.3l-24.2-13l2.6-4.8l3.2,1.7c-0.7-1-1.1-2.2-1.3-3.5c-0.2-1.3,0-2.6,0.6-3.7c0,0,0.2-0.3,0.5-0.7
				l5.3,2.9c-0.8,0.7-1.5,1.5-2,2.4c-0.5,1-0.7,2-0.4,2.9c0.3,0.9,0.9,1.7,1.9,2.2l16.3,8.8L635.9,419.3z"/>
			<path class="st0" d="M646.1,400c-0.6,1.4-1.7,2.3-3.4,2.8c-1.6,0.5-3.2,0.3-4.7-0.3c-1.2-0.5-2.2-1.2-3.1-2.1
				c-0.8-0.9-1.4-1.6-1.8-2.4c-0.4-0.7-0.7-1.8-0.8-3.1s-0.2-2.4-0.2-3s0-1.8,0.1-3.4c0-0.3,0-0.5,0-0.6l-1.8-0.8
				c-1.3-0.6-2.3-0.8-3.2-0.8c-0.9,0-1.5,0.5-1.9,1.5c-0.4,0.9-0.4,1.6,0.1,2.2s1.2,1.2,2.2,1.7c0.1,0.1,0.4,0.2,0.6,0.3l-2.2,5
				c-2.4-1.1-4-2.6-4.9-4.6s-0.8-4.1,0.3-6.5c1-2.3,2.6-3.9,4.6-4.6c2-0.7,4.2-0.5,6.6,0.5l11.3,5c2.6,1.1,4.8,1.9,6.6,2.1l-2.2,5
				l-4.1-1c0.4,0.5,0.7,0.9,0.9,1.2s0.5,0.7,0.8,1.2c0.3,0.5,0.5,1,0.6,1.4c0.1,0.4,0.1,0.9,0.1,1.4S646.3,399.4,646.1,400z
				 M643.1,395.7c0.2-0.4,0.2-0.7,0.1-1.2c-0.1-0.4-0.2-0.8-0.3-1s-0.3-0.6-0.5-1c0-0.1-0.1-0.1-0.1-0.2l-7-3.1
				c0,0.3,0.1,0.7,0.2,1.3c0.1,0.6,0.2,1.1,0.2,1.5c0.1,0.4,0.2,0.8,0.3,1.4c0.2,0.5,0.3,1,0.5,1.4c0.2,0.4,0.5,0.7,0.9,1.1
				c0.4,0.4,0.8,0.7,1.3,0.9C640.9,397.7,642.3,397.3,643.1,395.7z"/>
			<path class="st0" d="M655.2,376.8c-0.4,1.3-1,2.3-1.7,3.1c-0.7,0.8-1.5,1.3-2.4,1.7c-0.9,0.3-1.9,0.5-3,0.5
				c-1.2,0-2.3-0.1-3.4-0.4c-1.1-0.2-2.3-0.6-3.7-1c-1.1-0.3-2.3-0.7-3.4-1.1c-1.4-0.5-2.6-1-3.6-1.5c-1-0.5-2-1.1-2.9-1.8
				c-0.9-0.7-1.6-1.4-2.1-2.2c-0.5-0.8-0.8-1.7-0.9-2.8c-0.1-1.1,0-2.2,0.5-3.5c0.9-2.7,2.3-4.5,4.2-5.1c1.9-0.7,4.3-0.6,7.2,0.3
				l0.7,0.2l-1.8,5.2l-0.7-0.2c-0.7-0.2-1.2-0.4-1.8-0.5c-0.5-0.1-1-0.1-1.6-0.1c-0.5,0-1,0.1-1.4,0.4c-0.4,0.3-0.7,0.7-0.8,1.2
				c-0.2,0.5-0.2,1,0,1.5c0.2,0.5,0.5,0.9,1,1.2c0.5,0.4,1.1,0.7,1.6,1c0.6,0.3,1.3,0.6,2,0.8c1.7,0.6,4.2,1.5,7.6,2.6
				c0.8,0.2,1.4,0.4,2,0.5c0.6,0.1,1.2,0.2,1.8,0.2c0.6,0,1.1-0.1,1.5-0.4c0.4-0.3,0.7-0.6,0.9-1.1c0.2-0.5,0.2-0.9,0.1-1.3
				c-0.1-0.4-0.2-0.7-0.4-1c-0.2-0.3-0.5-0.5-0.9-0.8c-0.4-0.2-0.8-0.5-1.1-0.6c-0.4-0.1-0.8-0.3-1.4-0.5l-0.6-0.2l1.8-5.2l0.7,0.2
				c1.4,0.5,2.5,1.1,3.5,1.7c1,0.6,1.7,1.4,2.3,2.3c0.6,0.9,0.9,1.9,1,3C655.9,374.2,655.7,375.4,655.2,376.8z"/>
			<path class="st0" d="M661.3,355.9c-0.3,1.3-0.8,2.4-1.5,3.2c-0.7,0.8-1.4,1.5-2.3,1.8c-0.9,0.4-1.9,0.6-3.1,0.7
				c-1.2,0.1-2.4,0-3.5-0.1c-1.1-0.1-2.5-0.4-4-0.7c-1.2-0.2-2.3-0.5-3.5-0.9c-1.4-0.4-2.6-0.8-3.6-1.2c-1-0.4-2-0.9-3-1.5
				s-1.6-1.3-2.2-2c-0.5-0.7-0.9-1.6-1-2.6c-0.2-1-0.1-2.2,0.2-3.4c0.3-1.1,0.7-2.1,1.2-2.9c0.5-0.8,1.1-1.4,1.9-1.8
				c0.7-0.4,1.5-0.7,2.4-1c0.8-0.2,1.8-0.3,2.9-0.2c1.1,0.1,2.2,0.2,3.2,0.3c1,0.2,2.2,0.4,3.5,0.7l0.6,0.1l-2.6,10.7l1.3,0.3
				c0.2,0,0.5,0.1,0.9,0.2c0.5,0.1,1,0.3,1.6,0.4c0.5,0.1,1.1,0.2,1.6,0.3c0.5,0.1,1.1,0.1,1.6,0.1c0.5,0,1-0.1,1.4-0.1
				c0.4-0.1,0.8-0.3,1-0.5c0.3-0.3,0.5-0.6,0.6-1.1c0.1-0.6,0.1-1,0-1.5c-0.1-0.4-0.4-0.8-0.8-1c-0.4-0.3-0.8-0.5-1.2-0.7
				c-0.4-0.2-0.9-0.4-1.6-0.5l-1.1-0.3l1.3-5.3l1.1,0.3c2.8,0.8,4.8,2.1,5.9,3.7C661.6,351.1,661.9,353.2,661.3,355.9z M644.2,354.5
				l1.3-5.3l-1.6-0.4c-0.7-0.2-1.3-0.3-1.9-0.3c-0.5-0.1-1.1-0.1-1.7,0c-0.6,0-1,0.2-1.4,0.5s-0.6,0.7-0.7,1.2
				c-0.1,0.5-0.1,1,0.1,1.5c0.2,0.4,0.6,0.8,1.1,1.1s1,0.6,1.5,0.8c0.5,0.2,1.1,0.4,1.9,0.6L644.2,354.5z"/>
		</g>
		<g>
			<g>
				<path class="st0" d="M217.2,214.9l-35-16l2.8-6.3c1.7-3.7,3.7-6.2,6-7.4c2.3-1.2,5.1-1.1,8.5,0.5c2.1,1,3.7,2.1,4.7,3.5
					c1.1,1.4,1.5,2.9,1.4,4.6l20.1,2.4l-2.3,5l-18.5-2.4l-1.7,3.7l16.3,7.4L217.2,214.9z M199.5,200.8l0.6-1.2
					c1-2.1,1.2-3.8,0.8-5.3c-0.4-1.4-1.6-2.6-3.6-3.5c-2-0.9-3.7-1-5-0.4c-1.4,0.6-2.5,2-3.5,4.1l-0.6,1.2L199.5,200.8z"/>
				<path class="st0" d="M229.6,190.4c-0.6,1-1.5,1.6-2.6,1.9c-1.1,0.2-2.2,0-3.3-0.7l-20.2-11.9l2.8-4.7l18.8,11
					c0.5,0.3,1,0.4,1.5,0.3c0.5-0.1,0.9-0.4,1.1-0.9c0.1-0.3,0.3-0.5,0.4-0.8c0.1-0.3,0.1-0.6,0.1-0.9c0-0.3,0-0.6,0-0.8
					s-0.1-0.5-0.1-0.9c-0.1-0.4-0.1-0.6-0.1-0.7l-18.8-11l2.8-4.7l23.7,13.9l-2.8,4.7l-2.6-1.5c0.1,0.7,0.2,1.2,0.3,1.6
					c0.1,0.3,0.1,0.8,0.2,1.4c0,0.6,0,1.2,0,1.6c-0.1,0.4-0.2,0.9-0.4,1.5C230.2,189.3,229.9,189.9,229.6,190.4z"/>
				<path class="st0" d="M245,166.8c-0.7,0.9-1.5,1.5-2.4,1.9c-0.9,0.4-2,0.7-3.2,0.8l2,1.5l-3.2,4.4l-31.1-22.7l3.2-4.4l11.1,8.1
					c-0.1-0.7-0.2-1.3-0.3-1.6c0-0.4-0.1-0.8-0.1-1.5c0-0.6,0.1-1.2,0.3-1.7c0.2-0.5,0.5-1,0.9-1.6c0.5-0.8,1.2-1.3,1.9-1.7
					c0.7-0.4,1.4-0.6,2-0.7c0.7-0.1,1.4,0,2.4,0.2c0.9,0.3,1.7,0.5,2.4,0.8c0.7,0.3,1.5,0.8,2.6,1.4s1.9,1.2,2.5,1.6
					c0.6,0.4,1.5,1,2.5,1.8l0.3,0.2c1,0.7,1.9,1.4,2.7,2.2c0.8,0.8,1.6,1.6,2.4,2.6c0.7,0.9,1.3,1.9,1.7,2.8
					c0.4,0.9,0.6,1.8,0.5,2.8C245.9,165,245.6,165.9,245,166.8z M240.5,165.2c0.3-0.5,0.5-1,0.3-1.6c-0.1-0.6-0.4-1.2-1-1.8
					s-1.1-1.2-1.7-1.7c-0.6-0.5-1.3-1.1-2.2-1.7c-0.6-0.5-1.5-1.1-2.5-1.8s-1.8-1.3-2.3-1.7c-0.5-0.4-1-0.7-1.4-1
					c-0.4-0.3-0.9-0.5-1.3-0.7c-0.5-0.2-0.9-0.4-1.3-0.4c-0.4,0-0.8,0-1.2,0.1c-0.4,0.1-0.7,0.4-1,0.8c-0.9,1.2-1.4,2.6-1.5,4
					l14,10.2C238.7,167.2,239.7,166.3,240.5,165.2z"/>
				<path class="st0" d="M255,154.2c-1,1.1-2.4,1.7-4.1,1.6c-1.7-0.1-3.2-0.7-4.4-1.8c-1-0.9-1.7-1.9-2.3-2.9c-0.5-1.1-0.8-2-1-2.8
					c-0.2-0.8-0.1-1.9,0.2-3.2c0.3-1.3,0.5-2.3,0.7-2.9c0.2-0.6,0.6-1.7,1.1-3.2c0.1-0.3,0.2-0.5,0.2-0.6L244,137
					c-1-0.9-2-1.5-2.8-1.7c-0.8-0.2-1.6,0.1-2.3,0.9c-0.6,0.7-0.8,1.4-0.6,2.2c0.2,0.7,0.7,1.5,1.6,2.3c0.1,0.1,0.3,0.3,0.5,0.5
					l-3.7,4.1c-2-1.8-3-3.7-3.2-5.8c-0.2-2.1,0.5-4.1,2.3-6.1c1.7-1.9,3.6-2.9,5.8-2.9c2.2,0,4.2,0.8,6.1,2.5l9.2,8.2
					c2.1,1.9,4,3.2,5.6,4l-3.6,4.1l-3.6-2.2c0.2,0.6,0.4,1.1,0.5,1.4c0.1,0.3,0.2,0.8,0.4,1.4c0.1,0.6,0.2,1.1,0.1,1.5
					c0,0.4-0.2,0.9-0.4,1.4C255.8,153.3,255.5,153.7,255,154.2z M253.5,149.1c0.3-0.3,0.4-0.6,0.5-1.1c0.1-0.4,0.1-0.8,0-1.1
					c0-0.3-0.1-0.6-0.2-1.1c0-0.1,0-0.1,0-0.2l-5.7-5.1c0,0.3-0.1,0.7-0.2,1.3c-0.1,0.6-0.2,1.1-0.2,1.5c0,0.4-0.1,0.8-0.1,1.4
					c0,0.6,0,1.1,0.1,1.5c0.1,0.4,0.3,0.8,0.5,1.3c0.2,0.5,0.6,0.9,1,1.2C250.8,150.5,252.3,150.5,253.5,149.1z"/>
				<path class="st0" d="M269.1,139.4c-1.1,1.1-2.5,1.5-4.2,1.2c-1.7-0.2-3.1-1-4.2-2.2c-0.9-1-1.6-2-2-3.1
					c-0.4-1.1-0.7-2.1-0.7-2.9c-0.1-0.8,0.1-1.9,0.5-3.2c0.4-1.3,0.7-2.3,1-2.9c0.3-0.6,0.7-1.6,1.4-3.1c0.1-0.2,0.2-0.4,0.3-0.6
					l-1.3-1.4c-1-1-1.8-1.7-2.6-2c-0.8-0.3-1.6-0.1-2.4,0.6c-0.7,0.6-1,1.3-0.8,2.1c0.1,0.8,0.6,1.6,1.3,2.4
					c0.1,0.1,0.3,0.3,0.5,0.5l-4,3.7c-1.8-1.9-2.7-4-2.7-6.1c0-2.1,0.9-4.1,2.8-5.8c1.9-1.7,3.9-2.5,6-2.4c2.1,0.2,4.1,1.2,5.9,3.1
					l8.4,9c2,2.1,3.7,3.6,5.2,4.5l-4,3.7l-3.3-2.5c0.2,0.6,0.3,1.1,0.4,1.5c0.1,0.4,0.2,0.8,0.2,1.4c0.1,0.6,0.1,1.1,0,1.5
					c-0.1,0.4-0.2,0.9-0.5,1.4C269.9,138.5,269.6,139,269.1,139.4z M268,134.2c0.3-0.3,0.5-0.6,0.6-1c0.1-0.4,0.2-0.8,0.1-1.1
					c0-0.3,0-0.6-0.1-1.1c0-0.1,0-0.1,0-0.2l-5.2-5.6c-0.1,0.3-0.2,0.7-0.3,1.3c-0.2,0.6-0.3,1.1-0.4,1.5c-0.1,0.4-0.2,0.8-0.2,1.4
					c-0.1,0.6-0.1,1.1,0,1.5c0,0.4,0.2,0.9,0.4,1.3c0.2,0.5,0.5,0.9,0.8,1.3C265.3,135.3,266.7,135.5,268,134.2z"/>
				<path class="st0" d="M280.5,128.7l-17.1-21.5l4.3-3.4l2.3,2.9c-0.2-1.2-0.2-2.4,0.1-3.7c0.3-1.3,1-2.3,2-3.2
					c0,0,0.3-0.2,0.7-0.5l3.8,4.8c-1.1,0.3-2,0.8-2.8,1.4c-0.9,0.7-1.4,1.6-1.5,2.5s0.2,1.9,0.9,2.8l11.5,14.5L280.5,128.7z"/>
				<path class="st0" d="M298.6,115.6c-1.1,0.7-2.2,1.2-3.3,1.4s-2.1,0.1-2.9-0.2c-0.9-0.3-1.8-0.8-2.7-1.6
					c-0.9-0.8-1.8-1.6-2.6-2.5c-0.8-0.9-1.6-1.9-2.5-3.2c-0.7-1-1.4-2-2-3c-0.8-1.2-1.4-2.3-1.9-3.3c-0.5-1-0.9-2-1.2-3.1
					c-0.3-1.1-0.4-2.1-0.2-2.9s0.5-1.8,1-2.6c0.6-0.9,1.4-1.7,2.5-2.4c1-0.7,1.9-1.1,2.8-1.4c0.9-0.2,1.8-0.3,2.6-0.1
					c0.8,0.2,1.6,0.5,2.4,0.9c0.7,0.4,1.5,1,2.3,1.8s1.5,1.6,2.1,2.4c0.6,0.8,1.4,1.8,2.1,2.9l0.4,0.5l-9.1,6.1l0.8,1.1
					c0.1,0.2,0.3,0.4,0.5,0.7c0.3,0.5,0.6,0.9,0.9,1.4c0.3,0.5,0.7,0.9,1,1.3c0.3,0.4,0.7,0.8,1.1,1.2c0.4,0.3,0.8,0.6,1.1,0.8
					c0.4,0.2,0.7,0.3,1.1,0.3c0.4,0,0.8-0.1,1.2-0.4c0.5-0.3,0.8-0.7,1-1.1c0.2-0.4,0.2-0.8,0.1-1.3c-0.1-0.5-0.2-0.9-0.4-1.3
					c-0.2-0.4-0.5-0.9-0.8-1.5l-0.6-1l4.5-3.1l0.6,0.9c1.5,2.5,2.2,4.8,1.9,6.7C302.2,112.3,300.9,114.1,298.6,115.6z M287,103.1
					l4.5-3.1l-0.9-1.4c-0.4-0.6-0.8-1.1-1.2-1.5c-0.4-0.4-0.8-0.8-1.2-1.1c-0.5-0.4-0.9-0.5-1.4-0.6c-0.5,0-0.9,0.1-1.4,0.4
					c-0.5,0.3-0.8,0.7-0.9,1.2c-0.1,0.5-0.1,1,0,1.5c0.2,0.6,0.4,1.1,0.6,1.6c0.2,0.5,0.6,1.1,1,1.7L287,103.1z"/>
				<path class="st0" d="M316.5,104.2l-17-34.5l8.6-4.2c5.8-2.8,10.2-1,13.5,5.6c1.4,2.8,1.7,5.3,0.9,7.5c-0.8,2.2-2.5,4-5.3,5.4
					l-3.7,1.8l7.9,16L316.5,104.2z M311.7,82l1.2-0.6c1.1-0.5,2-1.1,2.6-1.5c0.6-0.5,1.2-1,1.5-1.6c0.4-0.6,0.5-1.3,0.4-2.1
					c-0.1-0.8-0.4-1.7-0.9-2.7c-0.6-1.2-1.2-2.2-1.7-2.9c-0.6-0.7-1.2-1.1-1.9-1.4s-1.5-0.3-2.4-0.1c-0.9,0.2-1.9,0.6-3.2,1.2
					l-1.2,0.6L311.7,82z"/>
				<path class="st0" d="M343.3,92.5c-1.2,0.5-2.4,0.7-3.5,0.6c-1.1-0.1-2-0.4-2.8-0.8c-0.8-0.5-1.6-1.2-2.3-2.1
					c-0.7-1-1.4-1.9-1.9-3c-0.5-1-1.1-2.2-1.7-3.7c-0.5-1.1-0.9-2.2-1.3-3.4c-0.5-1.4-0.8-2.6-1.1-3.7c-0.3-1.1-0.4-2.2-0.4-3.3
					s0.1-2.1,0.4-2.9c0.3-0.8,0.9-1.6,1.6-2.3c0.8-0.7,1.7-1.3,2.9-1.8c1.1-0.4,2.1-0.6,3.1-0.7c0.9,0,1.8,0.1,2.6,0.5
					c0.8,0.4,1.5,0.8,2.1,1.4c0.6,0.6,1.2,1.3,1.8,2.3c0.6,0.9,1.1,1.9,1.5,2.8c0.5,1,0.9,2.1,1.4,3.3l0.2,0.6l-10.3,3.9l0.5,1.3
					c0.1,0.2,0.2,0.5,0.3,0.8c0.2,0.5,0.4,1,0.6,1.5c0.2,0.5,0.4,1,0.7,1.5c0.2,0.5,0.5,1,0.8,1.4c0.3,0.4,0.6,0.8,0.9,1.1
					c0.3,0.3,0.7,0.5,1.1,0.5s0.8,0,1.2-0.1c0.5-0.2,0.9-0.5,1.2-0.8c0.3-0.3,0.4-0.7,0.4-1.2c0-0.5,0-0.9-0.1-1.4
					c-0.1-0.4-0.2-1-0.5-1.6l-0.4-1.1l5.1-1.9l0.4,1c0.9,2.8,1,5.1,0.3,7C347.4,90.1,345.8,91.6,343.3,92.5z M334.7,77.7l5.1-1.9
					l-0.6-1.5c-0.3-0.7-0.5-1.3-0.8-1.7c-0.3-0.5-0.6-1-0.9-1.4c-0.4-0.4-0.8-0.7-1.2-0.9c-0.5-0.1-0.9-0.1-1.4,0.1
					c-0.5,0.2-0.9,0.5-1.1,0.9c-0.2,0.4-0.4,0.9-0.3,1.5c0,0.6,0.1,1.2,0.2,1.7c0.1,0.5,0.3,1.2,0.6,1.9L334.7,77.7z"/>
				<path class="st0" d="M367.6,82.2c-0.8,2-2.6,3.4-5.4,4.2c-2.8,0.8-5.1,0.5-6.8-0.8c-1.7-1.3-3-3.5-3.8-6.6l-2.2-7.9
					c-0.9-3.1-0.9-5.7-0.1-7.7c0.8-2,2.6-3.4,5.4-4.2s5.1-0.5,6.8,0.8c1.7,1.3,3,3.5,3.8,6.6l2.2,7.9
					C368.3,77.6,368.3,80.2,367.6,82.2z M359.9,82.1c0.3,0,0.7,0,1-0.1c0.4-0.1,0.7-0.2,0.9-0.4c0.3-0.2,0.5-0.4,0.6-0.6
					c0.1-0.2,0.2-0.5,0.3-0.8c0-0.3,0.1-0.6,0.1-0.9s0-0.6-0.1-1.1c-0.1-0.5-0.2-0.8-0.2-1.1c-0.1-0.3-0.2-0.6-0.3-1.1l-2.2-7.9
					c-0.1-0.5-0.3-0.9-0.3-1.1s-0.2-0.6-0.3-1c-0.1-0.4-0.3-0.8-0.4-1c-0.1-0.2-0.3-0.5-0.5-0.7c-0.2-0.3-0.4-0.5-0.7-0.6
					c-0.2-0.1-0.5-0.2-0.8-0.2s-0.7,0-1,0.1c-0.4,0.1-0.7,0.2-0.9,0.4c-0.3,0.2-0.5,0.4-0.6,0.6c-0.1,0.2-0.2,0.5-0.3,0.8
					c0,0.3-0.1,0.6-0.1,0.9c0,0.3,0,0.6,0.1,1.1c0.1,0.5,0.2,0.8,0.2,1.1c0.1,0.3,0.2,0.6,0.3,1.1l2.2,7.9c0.1,0.5,0.3,0.9,0.3,1.1
					s0.2,0.6,0.3,1c0.1,0.4,0.3,0.8,0.4,1c0.1,0.2,0.3,0.5,0.5,0.7c0.2,0.3,0.4,0.5,0.7,0.6C359.3,82,359.6,82.1,359.9,82.1z"/>
				<path class="st0" d="M375.8,90.9l-6.2-35.2l5.4-1l0.5,2.7c0.4-0.5,0.6-0.9,0.7-1.1c0.1-0.2,0.4-0.5,0.7-0.9
					c0.4-0.4,0.7-0.7,1-0.9c0.3-0.2,0.6-0.4,1.1-0.6c0.5-0.2,0.9-0.4,1.4-0.5c0.9-0.2,1.8-0.1,2.5,0.1c0.8,0.2,1.4,0.5,2,0.9
					c0.5,0.4,1.1,1,1.5,1.8c0.5,0.8,0.9,1.6,1.1,2.2c0.3,0.7,0.6,1.6,0.9,2.8c0.3,1.2,0.5,2.1,0.7,2.9c0.1,0.7,0.3,1.8,0.5,3.1
					l0.1,0.4c0.2,1.2,0.3,2.3,0.4,3.5s0,2.3-0.1,3.5c-0.1,1.2-0.4,2.2-0.7,3.2c-0.3,0.9-0.9,1.7-1.6,2.4c-0.7,0.7-1.6,1.1-2.6,1.3
					c-1.8,0.3-3.8-0.3-5.9-1.9l1.8,10.6L375.8,90.9z M383.1,77c0.6-0.1,1-0.4,1.3-0.9c0.3-0.5,0.5-1.1,0.5-2c0-0.8,0-1.6,0-2.4
					c-0.1-0.8-0.2-1.7-0.4-2.7l-0.7-3.6c-0.1-0.6-0.2-1.1-0.3-1.5c-0.1-0.4-0.2-0.9-0.3-1.5s-0.3-1.1-0.5-1.5
					c-0.1-0.4-0.3-0.8-0.6-1.3c-0.2-0.5-0.5-0.8-0.8-1.1s-0.6-0.4-1-0.6s-0.8-0.2-1.2-0.1c-0.2,0-0.4,0.1-0.6,0.1
					c-0.2,0.1-0.4,0.1-0.6,0.2c-0.2,0.1-0.4,0.2-0.5,0.3c-0.1,0.1-0.3,0.2-0.5,0.3c-0.2,0.1-0.3,0.3-0.4,0.3
					c-0.1,0.1-0.2,0.2-0.4,0.4c-0.2,0.2-0.3,0.3-0.4,0.3l2.9,16.7C380.3,77.2,381.7,77.3,383.1,77z"/>
				<path class="st0" d="M396.4,79.3L392.6,41l5.5-0.5l3.8,38.3L396.4,79.3z"/>
				<path class="st0" d="M414.4,78.4c-1.3,0-2.5-0.2-3.5-0.6c-1-0.4-1.8-1-2.4-1.7c-0.6-0.7-1.1-1.6-1.5-2.8
					c-0.4-1.1-0.7-2.3-0.8-3.4c-0.2-1.1-0.3-2.5-0.4-4c-0.1-1.2-0.1-2.4-0.1-3.6c0-1.4,0.1-2.7,0.2-3.8c0.1-1.1,0.3-2.2,0.7-3.2
					s0.8-1.9,1.4-2.6c0.6-0.7,1.3-1.3,2.3-1.7c1-0.4,2.1-0.7,3.4-0.7c1.2,0,2.2,0.1,3.1,0.4c0.9,0.3,1.7,0.7,2.3,1.3
					c0.6,0.6,1.1,1.3,1.5,2c0.4,0.7,0.7,1.7,1,2.7c0.2,1.1,0.4,2.1,0.5,3.2c0.1,1,0.2,2.2,0.2,3.6l0,0.6l-11,0.3l0,1.4
					c0,0.2,0,0.5,0,0.9c0,0.5,0,1.1,0,1.6c0,0.6,0.1,1.1,0.1,1.7c0,0.5,0.1,1.1,0.3,1.6c0.1,0.5,0.3,0.9,0.5,1.3
					c0.2,0.4,0.5,0.6,0.8,0.9c0.3,0.2,0.7,0.3,1.2,0.3c0.6,0,1-0.1,1.4-0.4c0.4-0.2,0.6-0.6,0.8-1c0.2-0.5,0.3-0.9,0.3-1.3
					c0.1-0.4,0.1-1,0.1-1.7l0-1.2l5.4-0.2l0,1.1c0,2.9-0.7,5.2-2,6.7C419.2,77.6,417.2,78.4,414.4,78.4z M411.2,61.7l5.4-0.2l0-1.6
					c0-0.7-0.1-1.4-0.2-1.9c-0.1-0.5-0.2-1.1-0.4-1.6c-0.2-0.5-0.5-0.9-0.9-1.2c-0.4-0.3-0.8-0.4-1.4-0.4c-0.6,0-1,0.2-1.4,0.5
					c-0.4,0.3-0.6,0.8-0.8,1.3c-0.2,0.6-0.3,1.1-0.3,1.7c-0.1,0.5-0.1,1.2-0.1,2L411.2,61.7z"/>
				<path class="st0" d="M429.7,50.6l-1.2-2.8c1,0,1.7-0.1,2.1-0.5s0.7-1.1,0.7-2.1l-2.7-0.1l0.3-5.5l5.5,0.3
					c-0.1,2.1-0.2,3.8-0.3,5.2c-0.1,0.8-0.1,1.4-0.2,1.9c-0.1,0.5-0.2,1.1-0.4,1.6c-0.2,0.5-0.5,0.9-0.7,1.2
					c-0.3,0.3-0.7,0.5-1.2,0.7C431,50.6,430.4,50.7,429.7,50.6z"/>
				<path class="st0" d="M444.6,79.6c-2.2-0.2-4-1.1-5.2-2.6c-1.2-1.5-2-3.3-2.2-5.5l4.2-0.9c0.7,2.8,1.9,4.3,3.7,4.5
					c0.9,0.1,1.6-0.1,2.1-0.5c0.5-0.4,0.8-1.1,0.9-1.9c0.1-1.3-0.2-2.4-1-3.3l-5-4.7c-0.6-0.5-1-0.9-1.4-1.3
					c-0.4-0.4-0.7-0.9-1.1-1.5c-0.4-0.6-0.6-1.2-0.8-1.9c-0.1-0.7-0.2-1.4-0.1-2.2c0.2-2.3,1.2-4,2.8-5.1c1.6-1.1,3.7-1.5,6.2-1.2
					c1.2,0.1,2.2,0.4,3.1,0.9c0.9,0.5,1.7,1.1,2.2,1.8c0.6,0.8,1,1.6,1.4,2.4c0.3,0.9,0.6,1.8,0.7,2.9l-4.2,0.9
					c-0.1-0.6-0.3-1.1-0.5-1.5c-0.2-0.4-0.4-0.9-0.7-1.4c-0.3-0.5-0.6-0.9-1.1-1.2c-0.4-0.3-0.9-0.5-1.5-0.5
					c-0.9-0.1-1.6,0.1-2.1,0.5c-0.5,0.4-0.8,1.1-0.9,1.9c-0.1,0.9,0.3,1.7,1.1,2.5l5,4.7c0.6,0.5,1,1.1,1.4,1.6
					c0.4,0.5,0.8,1.1,1.1,1.7c0.4,0.6,0.6,1.3,0.7,2.1c0.1,0.7,0.2,1.5,0.1,2.4c-0.2,2.3-1.2,4-2.8,5.1S447.1,79.9,444.6,79.6z"/>
				<path class="st0" d="M465,82.2l9.4-37.3l5.3,1.3l-4,16l9.3,2.4l4-16l5.3,1.3L485,87.2l-5.3-1.3l4.4-17.3l-9.3-2.4l-4.4,17.3
					L465,82.2z"/>
				<path class="st0" d="M497.2,92c-1.2-0.5-2.3-1.1-3-1.8c-0.8-0.8-1.3-1.6-1.6-2.5c-0.3-0.9-0.4-1.9-0.3-3.1
					c0.1-1.2,0.2-2.4,0.5-3.5c0.3-1.1,0.7-2.4,1.2-3.9c0.4-1.1,0.8-2.3,1.2-3.4c0.5-1.3,1.1-2.5,1.6-3.5c0.5-1,1.1-1.9,1.9-2.8
					c0.7-0.9,1.5-1.5,2.2-1.9c0.8-0.4,1.7-0.7,2.8-0.7c1.1,0,2.2,0.1,3.4,0.6c1.1,0.4,2,0.9,2.7,1.5c0.7,0.6,1.3,1.3,1.6,2.1
					c0.3,0.8,0.6,1.6,0.7,2.5c0.1,0.8,0.1,1.8-0.1,2.9c-0.2,1.1-0.4,2.1-0.7,3.1c-0.3,1-0.7,2.1-1.1,3.4l-0.2,0.6l-10.3-3.8
					l-0.5,1.3c-0.1,0.2-0.2,0.5-0.3,0.8c-0.2,0.5-0.4,1-0.6,1.5c-0.2,0.5-0.3,1.1-0.5,1.6c-0.2,0.5-0.3,1-0.3,1.5c0,0.5,0,1,0,1.4
					c0,0.4,0.2,0.8,0.4,1.1s0.6,0.6,1,0.7c0.5,0.2,1,0.3,1.4,0.2c0.4-0.1,0.8-0.3,1.1-0.6c0.3-0.4,0.6-0.7,0.8-1.1
					c0.2-0.4,0.5-0.9,0.7-1.5l0.4-1.1l5.1,1.9l-0.4,1c-1.1,2.7-2.6,4.5-4.3,5.5C501.9,92.9,499.7,92.9,497.2,92z M500.4,75.2
					l5.1,1.9l0.6-1.6c0.2-0.7,0.4-1.3,0.5-1.8c0.1-0.5,0.2-1.1,0.2-1.7c0-0.6-0.1-1.1-0.3-1.5c-0.3-0.4-0.6-0.7-1.1-0.9
					c-0.5-0.2-1-0.2-1.5-0.1c-0.5,0.1-0.9,0.5-1.2,0.9c-0.4,0.5-0.7,0.9-0.9,1.4c-0.3,0.5-0.5,1.1-0.8,1.8L500.4,75.2z"/>
				<path class="st0" d="M512.8,98.4c-1.4-0.7-2.3-1.8-2.7-3.5c-0.4-1.6-0.2-3.2,0.5-4.7c0.6-1.2,1.3-2.2,2.2-3
					c0.9-0.8,1.7-1.4,2.4-1.7s1.8-0.6,3.1-0.7c1.4-0.1,2.4-0.2,3-0.1c0.6,0,1.8,0.1,3.4,0.2c0.3,0,0.5,0,0.6,0l0.9-1.8
					c0.6-1.3,0.9-2.3,0.9-3.2c0-0.9-0.5-1.5-1.5-2c-0.9-0.4-1.6-0.4-2.2,0c-0.6,0.4-1.2,1.1-1.8,2.1c-0.1,0.1-0.2,0.3-0.3,0.6
					l-5-2.4c1.2-2.4,2.7-3.9,4.7-4.7c2-0.8,4.1-0.6,6.4,0.5c2.3,1.1,3.8,2.7,4.4,4.8c0.6,2.1,0.4,4.3-0.7,6.6l-5.3,11.1
					c-1.2,2.6-2,4.8-2.3,6.5l-4.9-2.4l1.1-4c-0.5,0.4-0.9,0.7-1.2,0.9c-0.3,0.2-0.7,0.5-1.2,0.7c-0.5,0.3-1,0.5-1.4,0.5
					c-0.4,0.1-0.9,0.1-1.4,0C513.9,98.9,513.4,98.7,512.8,98.4z M517.2,95.6c0.4,0.2,0.7,0.2,1.2,0.2c0.4,0,0.8-0.1,1-0.2
					c0.3-0.1,0.6-0.3,1-0.5c0.1,0,0.1-0.1,0.2-0.1l3.3-6.9c-0.3,0-0.7,0.1-1.3,0.2s-1.1,0.1-1.5,0.2c-0.4,0-0.8,0.1-1.4,0.3
					c-0.6,0.1-1,0.3-1.4,0.5c-0.4,0.2-0.7,0.5-1.1,0.8c-0.4,0.4-0.7,0.8-0.9,1.3C515.3,93.4,515.6,94.8,517.2,95.6z"/>
				<path class="st0" d="M526.9,105.2l19-33.4l4.8,2.7l-19,33.4L526.9,105.2z"/>
				<path class="st0" d="M542,114.8c-1.8-1.2-2.8-2.5-3.1-3.9c-0.2-1.5,0.3-3.1,1.4-5l9.3-14.3l-2.3-1.5l2.2-3.5l2.3,1.5l5.2-8.1
					l4.6,3l-5.2,8.1l3.5,2.2l-2.2,3.5l-3.5-2.2l-8.7,13.5c-0.6,0.9-0.9,1.7-0.9,2.3c0,0.6,0.3,1.1,1.1,1.6c0.3,0.2,0.9,0.5,1.7,0.8
					l-2.4,3.7C543.7,115.8,542.8,115.2,542,114.8z"/>
				<path class="st0" d="M548.4,118.5L571.8,88l4.4,3.3l-8.5,11.1c1.1-0.1,2-0.1,2.6-0.1c0.6,0,1.4,0.1,2.4,0.4
					c0.9,0.3,1.8,0.7,2.6,1.4c0.9,0.7,1.4,1.6,1.5,2.8c0.1,1.1-0.3,2.2-1.1,3.2l-14.3,18.6l-4.4-3.3l12.6-16.3
					c0.6-0.7,0.9-1.4,1-1.9c0.1-0.5-0.2-1-0.8-1.5c-0.9-0.7-2.2-1-3.8-0.9l-13.3,17.2L548.4,118.5z"/>
				<path class="st0" d="M578.4,145c-1.1-1.2-2-2.3-2.5-3.5c-0.5-1.2-0.8-2.4-0.8-3.5c0-1.1,0.3-2.3,0.8-3.5
					c0.5-1.2,1.2-2.3,2.1-3.5c0.8-1.1,1.9-2.3,3.1-3.5l7.9-7.7c1.2-1.2,2.4-2.2,3.5-3c1.1-0.8,2.3-1.5,3.5-2
					c1.2-0.5,2.4-0.7,3.5-0.7s2.3,0.3,3.5,0.8c1.2,0.6,2.3,1.4,3.5,2.6c1.2,1.3,2.1,2.6,2.7,3.9s0.7,2.6,0.5,3.9
					c-0.2,1.3-0.6,2.5-1.3,3.8c-0.7,1.2-1.7,2.5-2.9,3.8c-0.2,0.2-0.5,0.5-0.9,0.9l-3.8-3.9l0.9-0.9c0.5-0.5,1-1,1.3-1.4
					s0.7-0.8,1-1.3c0.3-0.5,0.5-0.9,0.7-1.4c0.1-0.4,0.2-0.9,0.2-1.3c0-0.5-0.1-0.9-0.4-1.4c-0.3-0.5-0.6-1-1.1-1.5
					c-0.6-0.6-1.3-1.1-1.9-1.3c-0.6-0.3-1.3-0.4-1.8-0.3c-0.6,0.1-1.2,0.3-1.9,0.7c-0.7,0.4-1.3,0.8-1.9,1.3c-0.6,0.5-1.2,1.1-2,1.8
					l-9.8,9.6c-0.7,0.6-1.2,1.2-1.7,1.8c-0.5,0.6-0.9,1.2-1.3,1.9c-0.4,0.7-0.6,1.3-0.7,1.9c-0.1,0.6,0,1.2,0.1,1.9
					c0.2,0.6,0.6,1.3,1.2,1.9c0.6,0.6,1.2,1,1.8,1.2c0.6,0.2,1.2,0.3,1.8,0.1c0.6-0.1,1.2-0.3,1.9-0.7s1.3-0.8,1.8-1.3
					c0.5-0.5,1.2-1,1.8-1.7l1-1l3.8,3.9l-1,1c-1.4,1.4-2.8,2.5-4.1,3.3c-1.3,0.8-2.7,1.3-4,1.6c-1.4,0.2-2.7,0.1-4.1-0.4
					C581.1,147.3,579.7,146.4,578.4,145z"/>
				<path class="st0" d="M587.8,154.8l29.5-24.7l3.5,4.2L591.4,159L587.8,154.8z"/>
				<path class="st0" d="M594.5,162.9l21.9-16.6l3.3,4.4l-21.9,16.6L594.5,162.9z M619.6,143.8l4.4-3.3l3.3,4.4l-4.4,3.3
					L619.6,143.8z"/>
				<path class="st0" d="M600.9,171.4l23-15l3,4.6l-2.5,1.6c1.1,0.3,1.9,0.5,2.5,0.7c0.6,0.2,1.3,0.6,2.1,1.2c0.8,0.6,1.5,1.3,2,2.1
					c0.6,1,0.8,2,0.5,3.1c-0.3,1.1-1,2-2.1,2.6l-19.6,12.7l-3-4.6l17.3-11.2c0.8-0.5,1.3-1,1.5-1.5c0.2-0.5,0.1-1.1-0.4-1.7
					c-0.3-0.4-0.6-0.7-1-1c-0.4-0.3-0.8-0.5-1-0.6c-0.3-0.1-0.7-0.2-1.2-0.4L603.9,176L600.9,171.4z"/>
				<path class="st0" d="M612.3,189.6l24.1-13.2l2.6,4.8l-24.1,13.2L612.3,189.6z M639.9,174.4l4.8-2.6l2.6,4.8l-4.8,2.6
					L639.9,174.4z"/>
				<path class="st0" d="M619.9,205.3c-0.6-1.2-0.8-2.3-0.9-3.4s0.2-2,0.6-2.9c0.4-0.8,1-1.6,1.9-2.4c0.9-0.8,1.8-1.5,2.7-2.1
					s2.1-1.2,3.4-1.9c1.1-0.5,2.1-1,3.2-1.5c1.3-0.6,2.5-1.1,3.6-1.4c1.1-0.3,2.2-0.6,3.3-0.7c1.2-0.1,2.2-0.1,3.1,0.1
					c0.9,0.2,1.7,0.7,2.6,1.4c0.8,0.7,1.5,1.6,2.1,2.9c1.2,2.6,1.4,4.8,0.5,6.6c-0.9,1.8-2.7,3.4-5.4,4.8l-0.7,0.3l-2.3-5l0.7-0.3
					c0.6-0.3,1.1-0.6,1.6-0.9c0.4-0.3,0.8-0.6,1.2-1c0.4-0.4,0.6-0.8,0.7-1.3c0.1-0.5,0-0.9-0.2-1.4c-0.2-0.5-0.6-0.8-1-1
					c-0.5-0.2-1-0.3-1.6-0.2c-0.6,0.1-1.2,0.2-1.9,0.4c-0.6,0.2-1.3,0.5-2.1,0.8c-1.6,0.7-4.1,1.8-7.3,3.4c-0.7,0.4-1.3,0.7-1.8,1
					c-0.5,0.3-1,0.7-1.4,1.1c-0.4,0.4-0.7,0.8-0.8,1.3c-0.1,0.5-0.1,0.9,0.2,1.4c0.2,0.4,0.5,0.8,0.8,1s0.6,0.4,1,0.4
					c0.3,0,0.7,0,1.2-0.1c0.5-0.1,0.9-0.2,1.2-0.4c0.4-0.1,0.8-0.3,1.4-0.6l0.6-0.3l2.3,5l-0.6,0.3c-1.3,0.6-2.6,1-3.7,1.1
					c-1.1,0.2-2.2,0.2-3.2-0.1c-1-0.2-2-0.7-2.8-1.5C621.2,207.7,620.5,206.7,619.9,205.3z"/>
			</g>
		</g>
	</g>
</g>
</svg>
